<svg width="122" height="100" viewBox="0 0 122 100" fill="none" xmlns="http://www.w3.org/2000/svg">
<path fill-rule="evenodd" clip-rule="evenodd" d="M109.092 37.8842C107.695 41.923 104.892 45.4965 100.901 47.8011C93.9556 51.8108 85.4844 50.7821 79.7194 45.8491L26.5642 76.5383C23.631 78.2317 19.8803 77.2267 18.1868 74.2936C16.4934 71.3604 17.4983 67.6097 20.4315 65.9162L73.587 35.2269C72.198 27.7681 75.5427 19.9179 82.4874 15.9084C87.2718 13.1461 92.7807 12.775 97.6301 14.4244L84.4642 22.0257L82.4196 38.2449L97.4882 44.5839L109.092 37.8842Z" fill="white"/>
<path d="M109.092 37.8842L112.628 39.1077L115.908 29.6296L107.222 34.6444L109.092 37.8842ZM79.7194 45.8491L82.1516 43.0066L80.1408 41.286L77.8489 42.6093L79.7194 45.8491ZM20.4315 65.9162L22.3021 69.156L20.4315 65.9162ZM73.587 35.2269L75.4576 38.4667L77.7493 37.1435L77.2648 34.542L73.587 35.2269ZM97.6301 14.4244L99.5006 17.6642L106.645 13.5391L98.8347 10.8826L97.6301 14.4244ZM84.4642 22.0257L82.5937 18.7858L80.9849 19.7147L80.7526 21.5578L84.4642 22.0257ZM82.4196 38.2449L78.708 37.777L78.353 40.5928L80.969 41.6932L82.4196 38.2449ZM97.4882 44.5839L96.0376 48.0322L97.7499 48.7526L99.3587 47.8237L97.4882 44.5839ZM102.771 51.0409C107.571 48.2695 110.947 43.9645 112.628 39.1077L105.557 36.6608C104.442 39.8814 102.213 42.7235 99.0301 44.5613L102.771 51.0409ZM77.2872 48.6915C84.2194 54.6233 94.4101 55.8682 102.771 51.0409L99.0301 44.5613C93.5012 47.7534 86.7494 46.9408 82.1516 43.0066L77.2872 48.6915ZM28.4347 79.7781L81.5899 49.0889L77.8489 42.6093L24.6937 73.2984L28.4347 79.7781ZM14.947 76.1641C17.6735 80.8866 23.7122 82.5046 28.4347 79.7781L24.6937 73.2984C23.5498 73.9589 22.0871 73.5669 21.4267 72.423L14.947 76.1641ZM18.561 62.6764C13.8385 65.4029 12.2205 71.4416 14.947 76.1641L21.4267 72.423C20.7662 71.2792 21.1582 69.8165 22.3021 69.156L18.561 62.6764ZM71.7165 31.987L18.561 62.6764L22.3021 69.156L75.4576 38.4667L71.7165 31.987ZM80.6168 12.6686C72.2562 17.4956 68.2389 26.9428 69.9092 35.9118L77.2648 34.542C76.157 28.5933 78.8293 22.3402 84.3579 19.1483L80.6168 12.6686ZM98.8347 10.8826C93.008 8.90086 86.3739 9.34476 80.6168 12.6686L84.3579 19.1483C88.1697 16.9475 92.5534 16.6492 96.4255 17.9661L98.8347 10.8826ZM86.3347 25.2655L99.5006 17.6642L95.7596 11.1845L82.5937 18.7858L86.3347 25.2655ZM86.1313 38.7128L88.1759 22.4936L80.7526 21.5578L78.708 37.777L86.1313 38.7128ZM98.9388 41.1356L83.8703 34.7966L80.969 41.6932L96.0376 48.0322L98.9388 41.1356ZM107.222 34.6444L95.6177 41.3441L99.3587 47.8237L110.963 41.1241L107.222 34.6444Z" fill="white"/>
</svg>
