<svg width="100" height="100" viewBox="0 0 100 100" fill="none" xmlns="http://www.w3.org/2000/svg">
<path fill-rule="evenodd" clip-rule="evenodd" d="M17.5753 17.0501C16.667 18.8327 16.667 21.1662 16.667 25.8333V28.3937L91.6232 21.5795C91.5467 19.5409 91.3365 18.184 90.7587 17.0501C89.9598 15.4821 88.6849 14.2072 87.1169 13.4083C85.3343 12.5 83.0008 12.5 78.3337 12.5H30.0003C25.3332 12.5 22.9997 12.5 21.2171 13.4083C19.6491 14.2072 18.3742 15.4821 17.5753 17.0501ZM91.667 29.9432L71.395 31.7861L81.8373 87.4781C84.3031 87.4242 85.8493 87.2376 87.1169 86.5917C88.6849 85.7928 89.9598 84.5179 90.7587 82.9499C91.667 81.1673 91.667 78.8338 91.667 74.1667V29.9432ZM73.3628 87.5L63.0586 32.544L16.667 36.7614V74.1667C16.667 78.8338 16.667 81.1673 17.5753 82.9499C18.3742 84.5179 19.6491 85.7928 21.2171 86.5917C22.9997 87.5 25.3332 87.5 30.0003 87.5H73.3628ZM56.2503 62.6245C56.2503 71.6178 47.3347 77.9355 43.4456 80.2636C42.3433 80.9234 40.9906 80.9234 39.8884 80.2636C35.9992 77.9355 27.0837 71.6178 27.0837 62.6245C27.0837 53.801 34.1498 47.9186 41.667 47.9186C49.4448 47.9186 56.2503 53.801 56.2503 62.6245Z" fill="white"/>
<circle cx="41.6667" cy="62.4987" r="4.16667" fill="white"/>
</svg>
