<svg width="100" height="100" viewBox="0 0 100 100" fill="none" xmlns="http://www.w3.org/2000/svg">
<path d="M60.2072 52.5722C72.9164 52.5722 83.2191 47.9932 83.2191 42.3447C83.2191 36.6962 72.9164 32.1172 60.2072 32.1172C47.4981 32.1172 37.1953 36.6962 37.1953 42.3447C37.1953 47.9932 47.4981 52.5722 60.2072 52.5722Z" stroke="white" stroke-width="5.11376" stroke-linecap="round" stroke-linejoin="round"/>
<path d="M37.1953 42.3438V73.0263C37.1953 78.6514 47.4228 83.2538 60.2072 83.2538C72.9916 83.2538 83.2191 78.6514 83.2191 73.0263V42.3438" stroke="white" stroke-width="5.11376" stroke-linecap="round" stroke-linejoin="round"/>
<path d="M83.2191 57.6836C83.2191 63.3087 72.9916 67.9111 60.2072 67.9111C47.4228 67.9111 37.1953 63.3087 37.1953 57.6836" stroke="white" stroke-width="5.11376" stroke-linecap="round" stroke-linejoin="round"/>
<path d="M59.6939 21.8969C53.7184 18.2093 46.7628 16.4258 39.7502 16.7832C27.0169 16.7832 16.7383 21.3855 16.7383 27.0107C16.7383 30.0278 19.7043 32.7381 24.4089 34.6813" stroke="white" stroke-width="5.11376" stroke-linecap="round" stroke-linejoin="round"/>
<path d="M24.4089 65.3571C19.7043 63.4139 16.7383 60.7036 16.7383 57.6865V27.0039" stroke="white" stroke-width="5.11376" stroke-linecap="round" stroke-linejoin="round"/>
<path d="M24.4089 50.0144C19.7043 48.0712 16.7383 45.3609 16.7383 42.3438" stroke="white" stroke-width="5.11376" stroke-linecap="round" stroke-linejoin="round"/>
</svg>
