<svg width="100" height="100" viewBox="0 0 100 100" fill="none" xmlns="http://www.w3.org/2000/svg">
<path d="M42.2662 27.6195C45.5437 19.4487 47.1824 15.3633 50.0005 15.3633C52.8185 15.3633 54.4573 19.4487 57.7348 27.6195L57.8874 28C59.739 32.6161 60.6648 34.9242 62.5517 36.327C64.4386 37.7299 66.9155 37.9517 71.8693 38.3954L72.7649 38.4756C80.8724 39.2017 84.9262 39.5648 85.7936 42.1438C86.661 44.7229 83.6505 47.4619 77.6295 52.9397L75.62 54.768C72.5721 57.541 71.0481 58.9275 70.3378 60.7447C70.2053 61.0836 70.0951 61.4309 70.0081 61.7843C69.5412 63.6787 69.9874 65.6901 70.88 69.7129L71.1578 70.9651C72.7981 78.3581 73.6182 82.0547 72.1862 83.6491C71.6511 84.2449 70.9557 84.6739 70.1831 84.8847C68.1156 85.4488 65.1803 83.057 59.3097 78.2732C55.4548 75.1321 53.5273 73.5615 51.3144 73.2082C50.444 73.0692 49.557 73.0692 48.6865 73.2082C46.4736 73.5615 44.5462 75.1321 40.6913 78.2732C34.8206 83.057 31.8853 85.4488 29.8178 84.8847C29.0453 84.6739 28.3498 84.2449 27.8147 83.6491C26.3827 82.0547 27.2029 78.3581 28.8432 70.9651L29.121 69.7129C30.0135 65.6901 30.4598 63.6787 29.9929 61.7843C29.9058 61.4309 29.7956 61.0836 29.6631 60.7447C28.9528 58.9275 27.4289 57.541 24.3809 54.768L22.3714 52.9397C16.3504 47.4619 13.3399 44.7229 14.2073 42.1438C15.0747 39.5648 19.1285 39.2017 27.236 38.4756L28.1316 38.3954C33.0854 37.9517 35.5623 37.7299 37.4492 36.327C39.3361 34.9242 40.2619 32.6161 42.1135 28L42.2662 27.6195Z" stroke="white" stroke-width="8.33333"/>
</svg>
