<svg width="100" height="100" viewBox="0 0 100 100" fill="none" xmlns="http://www.w3.org/2000/svg">
<path d="M50 87.5C45.0754 87.5 40.1991 86.53 35.6494 84.6455C31.0997 82.7609 26.9657 79.9987 23.4835 76.5165C20.0013 73.0343 17.2391 68.9003 15.3545 64.3506C13.47 59.8009 12.5 54.9246 12.5 50C12.5 45.0754 13.47 40.1991 15.3545 35.6494C17.2391 31.0997 20.0013 26.9657 23.4835 23.4835C26.9657 20.0013 31.0997 17.2391 35.6494 15.3545C40.1991 13.47 45.0754 12.5 50 12.5C54.9246 12.5 59.8009 13.47 64.3506 15.3545C68.9003 17.2391 73.0343 20.0013 76.5165 23.4835C79.9987 26.9657 82.7609 31.0997 84.6455 35.6494C86.53 40.1991 87.5 45.0754 87.5 50C87.5 54.9246 86.53 59.8009 84.6455 64.3506C82.7609 68.9003 79.9987 73.0343 76.5165 76.5165C73.0343 79.9987 68.9003 82.7609 64.3506 84.6455C59.8009 86.53 54.9246 87.5 50 87.5L50 87.5Z" stroke="white" stroke-width="8.33333" stroke-linecap="round"/>
<path d="M37.5 37.5L62.5 62.5" stroke="white" stroke-width="8.33333" stroke-linecap="round"/>
<path d="M62.5 37.5L37.5 62.5" stroke="white" stroke-width="8.33333" stroke-linecap="round"/>
</svg>
