<svg width="100" height="100" viewBox="0 0 100 100" fill="none" xmlns="http://www.w3.org/2000/svg">
<path d="M18.0294 27.6611L21.7419 29.5527L18.0294 27.6611ZM19.8678 84.3018L22.8141 87.2481H22.8141L19.8678 84.3018ZM63.3337 70.8359V75.0026V70.8359ZM76.5085 69.4735L74.6169 65.761L76.5085 69.4735ZM81.9712 64.0108L78.2587 62.1192L81.9712 64.0108ZM81.9712 27.6611L78.2587 29.5527L81.9712 27.6611ZM76.5085 22.1984L74.6169 25.9109V25.9109L76.5085 22.1984ZM23.4921 22.1984L21.6005 18.4858L23.4921 22.1984ZM32.1133 72.0563L29.167 69.11L32.1133 72.0563ZM20.8337 40.8359C20.8337 37.2669 20.8369 34.8406 20.9901 32.9653C21.1394 31.1385 21.4099 30.2043 21.7419 29.5527L14.3169 25.7694C13.2865 27.7917 12.8758 29.9446 12.6845 32.2867C12.4971 34.5801 12.5003 37.4044 12.5003 40.8359H20.8337ZM20.8337 50.0026V40.8359H12.5003V50.0026H20.8337ZM12.5003 50.0026V70.8359H20.8337V50.0026H12.5003ZM12.5003 70.8359V82.9759H20.8337V70.8359H12.5003ZM12.5003 82.9759C12.5003 88.3585 19.008 91.0541 22.8141 87.2481L16.9215 81.3555C18.3652 79.9118 20.8337 80.9343 20.8337 82.9759H12.5003ZM22.8141 87.2481L35.0595 75.0026L29.167 69.11L16.9215 81.3555L22.8141 87.2481ZM63.3337 66.6693L35.0595 66.6693L35.0595 75.0026H63.3337L63.3337 66.6693ZM74.6169 65.761C73.9652 66.093 73.0311 66.3636 71.2043 66.5128C69.329 66.666 66.9027 66.6693 63.3337 66.6693V75.0026C66.7652 75.0026 69.5895 75.0058 71.8829 74.8185C74.225 74.6271 76.3779 74.2164 78.4002 73.186L74.6169 65.761ZM78.2587 62.1192C77.4598 63.6872 76.1849 64.962 74.6169 65.761L78.4002 73.186C81.5362 71.5882 84.0859 69.0385 85.6838 65.9024L78.2587 62.1192ZM79.167 50.8359C79.167 54.405 79.1637 56.8312 79.0105 58.7066C78.8613 60.5333 78.5907 61.4675 78.2587 62.1192L85.6838 65.9024C86.7141 63.8802 87.1248 61.7273 87.3162 59.3852C87.5036 57.0918 87.5003 54.2675 87.5003 50.8359H79.167ZM79.167 40.8359V50.8359H87.5003V40.8359H79.167ZM78.2587 29.5527C78.5907 30.2043 78.8613 31.1385 79.0105 32.9653C79.1637 34.8406 79.167 37.2669 79.167 40.8359H87.5003C87.5003 37.4044 87.5036 34.5801 87.3162 32.2867C87.1248 29.9446 86.7141 27.7917 85.6838 25.7694L78.2587 29.5527ZM74.6169 25.9109C76.1849 26.7098 77.4598 27.9847 78.2587 29.5527L85.6838 25.7694C84.0859 22.6334 81.5362 20.0837 78.4002 18.4858L74.6169 25.9109ZM63.3336 25.0026C66.9027 25.0026 69.329 25.0058 71.2043 25.1591C73.0311 25.3083 73.9652 25.5788 74.6169 25.9109L78.4002 18.4858C76.3779 17.4555 74.225 17.0448 71.8829 16.8534C69.5895 16.666 66.7652 16.6693 63.3336 16.6693V25.0026ZM36.667 25.0026H63.3336V16.6693H36.667V25.0026ZM25.3837 25.9109C26.0354 25.5788 26.9696 25.3083 28.7963 25.1591C30.6717 25.0058 33.0979 25.0026 36.667 25.0026V16.6693C33.2354 16.6693 30.4111 16.666 28.1177 16.8534C25.7756 17.0448 23.6227 17.4555 21.6005 18.4858L25.3837 25.9109ZM21.7419 29.5527C22.5409 27.9847 23.8157 26.7098 25.3837 25.9109L21.6005 18.4858C18.4644 20.0837 15.9148 22.6334 14.3169 25.7694L21.7419 29.5527ZM35.0595 75.0026L35.0595 66.6693C32.8494 66.6693 30.7298 67.5472 29.167 69.11L35.0595 75.0026Z" fill="white"/>
<path d="M33.333 37.5L66.6663 37.5" stroke="white" stroke-width="8.33333" stroke-linecap="round" stroke-linejoin="round"/>
<path d="M33.333 54.168L54.1663 54.168" stroke="white" stroke-width="8.33333" stroke-linecap="round" stroke-linejoin="round"/>
</svg>
