<svg width="13" height="24" viewBox="0 0 13 24" fill="none" xmlns="http://www.w3.org/2000/svg">
<path d="M10.5 10.5C9.67157 10.5 9 11.1716 9 12C9 12.8284 9.67157 13.5 10.5 13.5L10.5 10.5ZM12.5607 13.0607C13.1464 12.4749 13.1464 11.5251 12.5607 10.9393L3.01472 1.3934C2.42893 0.80761 1.47919 0.80761 0.893401 1.3934C0.307614 1.97918 0.307614 2.92893 0.8934 3.51472L9.37868 12L0.893396 20.4853C0.30761 21.0711 0.307609 22.0208 0.893396 22.6066C1.47918 23.1924 2.42893 23.1924 3.01472 22.6066L12.5607 13.0607ZM10.5 13.5L11.5 13.5L11.5 10.5L10.5 10.5L10.5 13.5Z" fill="#111111"/>
</svg>
