<svg width="13" height="24" viewBox="0 0 13 24" fill="none" xmlns="http://www.w3.org/2000/svg">
<path d="M2.5 13.5C3.32843 13.5 4 12.8284 4 12C4 11.1716 3.32843 10.5 2.5 10.5L2.5 13.5ZM0.43934 10.9393C-0.146446 11.5251 -0.146447 12.4749 0.439339 13.0607L9.98528 22.6066C10.5711 23.1924 11.5208 23.1924 12.1066 22.6066C12.6924 22.0208 12.6924 21.0711 12.1066 20.4853L3.62132 12L12.1066 3.51472C12.6924 2.92894 12.6924 1.97919 12.1066 1.3934C11.5208 0.807615 10.5711 0.807615 9.98528 1.3934L0.43934 10.9393ZM2.5 10.5L1.5 10.5L1.5 13.5L2.5 13.5L2.5 10.5Z" fill="#111111"/>
</svg>
